<svg data-v-fde0c5aa="" xmlns="http://www.w3.org/2000/svg" viewBox="0 0 300 300" class="iconLeft"><defs data-v-fde0c5aa=""></defs><rect data-v-fde0c5aa="" fill="transparent" x="0" y="0" width="300px" height="300px" class="logo-background-square"></rect><defs data-v-fde0c5aa=""></defs><g data-v-fde0c5aa="" id="7a4c3872-8257-49c4-8976-7d7109a28309" fill="#000000" transform="matrix(3.2537360191345215,0,0,3.2537360191345215,102.25888626559106,120.96040689881391)"><path d="M1.29 14.08L2.94 14.08L2.94 7.06L8.16 14.08L9.79 14.08L9.79 4.28L8.16 4.28L8.16 11.33L2.91 4.28L1.29 4.28ZM11.58 10.36C11.58 12.60 13.16 14.14 15.47 14.14C17.77 14.14 19.35 12.60 19.35 10.36C19.35 8.11 17.77 6.58 15.47 6.58C13.16 6.58 11.58 8.11 11.58 10.36ZM13.19 10.37C13.19 8.95 14.13 7.97 15.47 7.97C16.80 7.97 17.74 8.95 17.74 10.37C17.74 11.82 16.80 12.80 15.47 12.80C14.13 12.80 13.19 11.82 13.19 10.37ZM21.03 14.08L22.64 14.08L22.64 10.19C22.76 8.92 23.72 8.04 25.21 8.12L25.21 6.58C24.04 6.58 23.14 7.11 22.64 8.12L22.64 6.64L21.03 6.64ZM25.84 10.33C25.84 12.60 27.27 14.15 29.41 14.15C30.60 14.15 31.50 13.68 32.03 12.81L32.03 14.08L33.64 14.08L33.64 3.70L32.03 3.70L32.03 7.92C31.49 7.06 30.59 6.57 29.39 6.57C27.29 6.57 25.84 8.09 25.84 10.33ZM27.45 10.39C27.47 8.96 28.41 7.94 29.75 7.94C31.09 7.94 32.03 8.95 32.03 10.39C32.03 11.80 31.09 12.81 29.75 12.81C28.39 12.81 27.47 11.80 27.45 10.39ZM35.48 11.84C35.48 13.16 36.48 14.15 38.09 14.15C39.17 14.15 40.03 13.83 40.56 13.17L40.56 14.08L42.14 14.08L42.13 9.20C42.11 7.56 41.03 6.58 39.12 6.58C37.70 6.58 36.95 6.90 35.91 7.52L36.57 8.64C37.31 8.13 38.05 7.88 38.77 7.88C39.94 7.88 40.54 8.44 40.54 9.38L40.54 9.60L38.29 9.60C36.50 9.62 35.48 10.49 35.48 11.84ZM36.99 11.77C36.99 11.06 37.48 10.78 38.53 10.78L40.54 10.78L40.54 11.47C40.46 12.28 39.58 12.88 38.43 12.88C37.53 12.88 36.99 12.45 36.99 11.77ZM44.30 14.08L45.91 14.08L45.91 10.19C46.03 8.92 46.98 8.04 48.48 8.12L48.48 6.58C47.31 6.58 46.41 7.11 45.91 8.12L45.91 6.64L44.30 6.64Z"></path></g><defs data-v-fde0c5aa=""><linearGradient data-v-fde0c5aa="" gradientTransform="rotate(25)" id="38e6b417-b1ce-486d-9eba-db4dfce67daa" x1="0%" y1="0%" x2="100%" y2="0%"><stop data-v-fde0c5aa="" offset="0%" stop-color="#5106FF" stop-opacity="1"></stop><stop data-v-fde0c5aa="" offset="100%" stop-color="#61CBF2" stop-opacity="1"></stop></linearGradient></defs><g data-v-fde0c5aa="" id="1b2563c5-1304-4791-a40b-6583bb050b7e" stroke="none" fill="url(#38e6b417-b1ce-486d-9eba-db4dfce67daa)" transform="matrix(0.5388041734695435,0,0,0.5388041734695435,39.7894047033183,123.05969187077373)"><path d="M99.453 38.603a3.08 3.08 0 0 0-2.93-2.129H66.029c-1.252-.332-3.057-1.212-3.947-3.496L52.927 4.8a3.08 3.08 0 0 0-5.859 0l-9.319 28.679c-1.221 2.3-3.446 2.861-4.454 2.995H3.471a3.08 3.08 0 0 0-1.81 5.572L26.125 59.82c.842.954 2.123 2.972 1.184 5.753a7 7 0 0 0-.149.498l-8.846 27.227a3.078 3.078 0 0 0 2.93 4.031c.636 0 1.271-.196 1.811-.588l23.764-17.267c1.242-.731 3.69-1.614 6.638.202L76.941 96.74a3.08 3.08 0 0 0 4.741-3.443l-9.234-28.421c-.148-.943-.302-3.488 1.856-5.371l24.03-17.46a3.08 3.08 0 0 0 1.119-3.442M60.98 42.635H77.8c.555.111 1.109.409 1.24 1.142.185 1.029-.889 1.739-1.575 2.081l-23.466 7.72a1.398 1.398 0 0 0-.098 2.623l8.376 3.469c.787.398 2.555 1.481 3.038 3.34.067.257.145.437.226.551l4.46 13.726c.079.646-.012 1.459-.849 1.793-.778.311-1.521-.214-2.027-.746l-14.853-20.29a1.41 1.41 0 0 0-1.512-.521 1.4 1.4 0 0 0-1.013 1.238l-.745 9.474c-.146.745-.546 2.154-1.556 3.168L32.81 82.038c-.583.32-1.423.568-2.053-.132-.475-.525-.38-1.232-.146-1.835l15.393-24.103c.195-.253.306-.568.294-.902a1.39 1.39 0 0 0-.85-1.233l-.032-.015q-.032-.015-.066-.028l-24.094-8.213c-.596-.327-1.383-.965-1.056-1.943.203-.607.763-.882 1.342-.999h16.035c.938.073 2.497.371 3.58 1.465l6.318 7.347a1.402 1.402 0 0 0 2.462-.913V25.765c.049-.673.297-1.775 1.395-1.86.979-.077 1.565.922 1.859 1.638l4.861 14.964a3.08 3.08 0 0 0 2.928 2.128"></path></g></svg>