<svg data-v-423bf9ae="" xmlns="http://www.w3.org/2000/svg" viewBox="0 0 270.9473654814974 60" class="font"><defs data-v-423bf9ae=""><linearGradient data-v-423bf9ae="" gradientTransform="rotate(25)" id="888ed6eb-02fe-4390-834d-85ed03b8b8bd" x1="0%" y1="0%" x2="100%" y2="0%"><stop data-v-423bf9ae="" offset="0%" style="stop-color: rgb(81, 6, 255); stop-opacity: 1;"></stop><stop data-v-423bf9ae="" offset="100%" style="stop-color: rgb(97, 203, 242); stop-opacity: 1;"></stop></linearGradient></defs><g data-v-423bf9ae="" id="3e3d1876-e796-47b4-8f82-6307179c45fb" fill="url(#888ed6eb-02fe-4390-834d-85ed03b8b8bd)" transform="matrix(5.741626739501953,0,0,5.741626739501953,-7.406692981719971,-21.244020462036133)"><path d="M1.29 14.08L2.94 14.08L2.94 7.06L8.16 14.08L9.79 14.08L9.79 4.28L8.16 4.28L8.16 11.33L2.91 4.28L1.29 4.28ZM11.58 10.36C11.58 12.60 13.16 14.14 15.47 14.14C17.77 14.14 19.35 12.60 19.35 10.36C19.35 8.11 17.77 6.58 15.47 6.58C13.16 6.58 11.58 8.11 11.58 10.36ZM13.19 10.37C13.19 8.95 14.13 7.97 15.47 7.97C16.80 7.97 17.74 8.95 17.74 10.37C17.74 11.82 16.80 12.80 15.47 12.80C14.13 12.80 13.19 11.82 13.19 10.37ZM21.03 14.08L22.64 14.08L22.64 10.19C22.76 8.92 23.72 8.04 25.21 8.12L25.21 6.58C24.04 6.58 23.14 7.11 22.64 8.12L22.64 6.64L21.03 6.64ZM25.84 10.33C25.84 12.60 27.27 14.15 29.41 14.15C30.60 14.15 31.50 13.68 32.03 12.81L32.03 14.08L33.64 14.08L33.64 3.70L32.03 3.70L32.03 7.92C31.49 7.06 30.59 6.57 29.39 6.57C27.29 6.57 25.84 8.09 25.84 10.33ZM27.45 10.39C27.47 8.96 28.41 7.94 29.75 7.94C31.09 7.94 32.03 8.95 32.03 10.39C32.03 11.80 31.09 12.81 29.75 12.81C28.39 12.81 27.47 11.80 27.45 10.39ZM35.48 11.84C35.48 13.16 36.48 14.15 38.09 14.15C39.17 14.15 40.03 13.83 40.56 13.17L40.56 14.08L42.14 14.08L42.13 9.20C42.11 7.56 41.03 6.58 39.12 6.58C37.70 6.58 36.95 6.90 35.91 7.52L36.57 8.64C37.31 8.13 38.05 7.88 38.77 7.88C39.94 7.88 40.54 8.44 40.54 9.38L40.54 9.60L38.29 9.60C36.50 9.62 35.48 10.49 35.48 11.84ZM36.99 11.77C36.99 11.06 37.48 10.78 38.53 10.78L40.54 10.78L40.54 11.47C40.46 12.28 39.58 12.88 38.43 12.88C37.53 12.88 36.99 12.45 36.99 11.77ZM44.30 14.08L45.91 14.08L45.91 10.19C46.03 8.92 46.98 8.04 48.48 8.12L48.48 6.58C47.31 6.58 46.41 7.11 45.91 8.12L45.91 6.64L44.30 6.64Z"></path></g></svg>